<?xml version="1.0" encoding="UTF-8" standalone="no"?>
<!-- Created with Inkscape (http://www.inkscape.org/) -->

<svg
   xmlns:dc="http://purl.org/dc/elements/1.1/"
   xmlns:cc="http://creativecommons.org/ns#"
   xmlns:rdf="http://www.w3.org/1999/02/22-rdf-syntax-ns#"
   xmlns:svg="http://www.w3.org/2000/svg"
   xmlns="http://www.w3.org/2000/svg"
   version="1.1"
   width="50"
   height="50"
   id="svg2">
  <defs
     id="defs4" />
  <metadata
     id="metadata7">
    <rdf:RDF>
      <cc:Work
         rdf:about="">
        <dc:format>image/svg+xml</dc:format>
        <dc:type
           rdf:resource="http://purl.org/dc/dcmitype/StillImage" />
        <dc:title></dc:title>
      </cc:Work>
    </rdf:RDF>
  </metadata>
  <g
     transform="translate(0,-1002.3622)"
     id="g2987">
    <path
       d="m 274.28571,689.50507 a 105.71429,105.71429 0 1 1 -211.42857,0 105.71429,105.71429 0 1 1 211.42857,0 z"
       transform="matrix(0.09459459,0,0,0.09459458,-1.9459456,957.13875)"
       id="path2989"
       style="fill:#ffffff;fill-opacity:1;stroke:#ffffff;stroke-width:0;stroke-miterlimit:4;stroke-opacity:1;stroke-dasharray:none" />
  </g>
  <g
     transform="translate(0,-1002.3622)"
     id="g3027">
    <path
       d="m 274.28571,689.50507 a 105.71429,105.71429 0 1 1 -211.42857,0 105.71429,105.71429 0 1 1 211.42857,0 z"
       transform="matrix(0.10878339,0,0,0.10878339,5.6622289,947.3555)"
       id="path3029"
       style="fill:#ffffff;fill-opacity:1;stroke:#810927;stroke-width:9.19258022;stroke-miterlimit:4;stroke-opacity:1;stroke-dasharray:none" />
  </g>
  <g
     transform="translate(0,-1002.3622)"
     id="layer1">
    <path
       d="m 274.28571,689.50507 a 105.71429,105.71429 0 1 1 -211.42857,0 105.71429,105.71429 0 1 1 211.42857,0 z"
       transform="matrix(0.11824295,0,0,0.11824296,14.067616,940.83308)"
       id="path2985"
       style="fill:#ffffff;fill-opacity:1;stroke:#810927;stroke-width:8.45716381;stroke-miterlimit:4;stroke-opacity:1;stroke-dasharray:none" />
  </g>
  <g
     id="layer2" />
  <g
     transform="translate(0,-1002.3622)"
     id="g3039"
     style="display:inline">
    <path
       d="m 274.28571,689.50507 a 105.71429,105.71429 0 1 1 -211.42857,0 105.71429,105.71429 0 1 1 211.42857,0 z"
       transform="matrix(0.03783843,0,0,0.0378387,27.621494,996.27222)"
       id="path3041"
       style="fill:#ffffff;fill-opacity:1;stroke:#810927;stroke-width:52.85132217;stroke-miterlimit:4;stroke-opacity:1;stroke-dasharray:none" />
  </g>
</svg>
