<?xml version="1.0" encoding="UTF-8" standalone="no"?>
<!-- Created with Inkscape (http://www.inkscape.org/) -->

<svg
   xmlns:dc="http://purl.org/dc/elements/1.1/"
   xmlns:cc="http://creativecommons.org/ns#"
   xmlns:rdf="http://www.w3.org/1999/02/22-rdf-syntax-ns#"
   xmlns:svg="http://www.w3.org/2000/svg"
   xmlns="http://www.w3.org/2000/svg"
   xmlns:sodipodi="http://sodipodi.sourceforge.net/DTD/sodipodi-0.dtd"
   xmlns:inkscape="http://www.inkscape.org/namespaces/inkscape"
   width="150"
   height="150"
   id="svg2"
   version="1.1"
   inkscape:version="0.48.2 r9819"
   sodipodi:docname="logo_red_flat.ink.svg"
   inkscape:export-filename="C:\Users\Jeff\Documents\Visual Studio 2012\Projects\CoverThree\CoverThree\images\c3_logo_red_150.png"
   inkscape:export-xdpi="90"
   inkscape:export-ydpi="90">
  <defs
     id="defs4" />
  <sodipodi:namedview
     id="base"
     pagecolor="#810927"
     bordercolor="#666666"
     borderopacity="1.0"
     inkscape:pageopacity="1"
     inkscape:pageshadow="2"
     inkscape:zoom="3.0943066"
     inkscape:cx="136.76398"
     inkscape:cy="61.5422"
     inkscape:document-units="px"
     inkscape:current-layer="layer2"
     showgrid="false"
     inkscape:window-width="1674"
     inkscape:window-height="926"
     inkscape:window-x="209"
     inkscape:window-y="38"
     inkscape:window-maximized="0"
     showguides="true"
     inkscape:snap-global="false">
    <inkscape:grid
       type="xygrid"
       id="grid2989"
       empspacing="5"
       visible="false"
       enabled="true"
       snapvisiblegridlinesonly="true" />
  </sodipodi:namedview>
  <metadata
     id="metadata7">
    <rdf:RDF>
      <cc:Work
         rdf:about="">
        <dc:format>image/svg+xml</dc:format>
        <dc:type
           rdf:resource="http://purl.org/dc/dcmitype/StillImage" />
        <dc:title></dc:title>
      </cc:Work>
    </rdf:RDF>
  </metadata>
  <g
     inkscape:groupmode="layer"
     id="layer2"
     inkscape:label="flat"
     transform="translate(0,100)">
    <g
       id="g3041"
       transform="matrix(2.3255831,0,0,2.3255831,15.697668,-89.744173)">
      <path
         sodipodi:type="arc"
         style="fill:#ffffff;fill-opacity:1;stroke:#ffffff;stroke-width:0;stroke-miterlimit:4;stroke-opacity:1;stroke-dasharray:none"
         id="path2989"
         sodipodi:cx="168.57143"
         sodipodi:cy="689.50507"
         sodipodi:rx="105.71429"
         sodipodi:ry="105.71429"
         d="m 274.28571,689.50507 c 0,58.38438 -47.3299,105.71428 -105.71428,105.71428 -58.38439,0 -105.71429,-47.3299 -105.71429,-105.71428 0,-58.38439 47.3299,-105.71429 105.71429,-105.71429 58.38438,0 105.71428,47.3299 105.71428,105.71429 z"
         transform="matrix(0.09459459,0,0,0.09459458,-1.9459456,-45.22345)" />
      <path
         style="fill:#ffffff;fill-opacity:1;stroke:#810927;stroke-width:9.19258022;stroke-miterlimit:4;stroke-opacity:1;stroke-dasharray:none"
         sodipodi:type="arc"
         id="path3029"
         sodipodi:cx="168.57143"
         sodipodi:cy="689.50507"
         sodipodi:rx="105.71429"
         sodipodi:ry="105.71429"
         d="m 274.28571,689.50507 c 0,58.38438 -47.3299,105.71428 -105.71428,105.71428 -58.38439,0 -105.71429,-47.3299 -105.71429,-105.71428 0,-58.38439 47.3299,-105.71429 105.71429,-105.71429 58.38438,0 105.71428,47.3299 105.71428,105.71429 z"
         transform="matrix(0.10878339,0,0,0.10878339,5.6622289,-55.0067)" />
      <path
         transform="matrix(0.11824295,0,0,0.11824296,14.067616,-61.52912)"
         d="m 274.28571,689.50507 c 0,58.38438 -47.3299,105.71428 -105.71428,105.71428 -58.38439,0 -105.71429,-47.3299 -105.71429,-105.71428 0,-58.38439 47.3299,-105.71429 105.71429,-105.71429 58.38438,0 105.71428,47.3299 105.71428,105.71429 z"
         sodipodi:ry="105.71429"
         sodipodi:rx="105.71429"
         sodipodi:cy="689.50507"
         sodipodi:cx="168.57143"
         id="path2985"
         style="fill:#ffffff;fill-opacity:1;stroke:#810927;stroke-width:8.45716381;stroke-miterlimit:4;stroke-opacity:1;stroke-dasharray:none"
         sodipodi:type="arc" />
      <path
         transform="matrix(0.03783843,0,0,0.0378387,27.621494,-6.0899797)"
         d="m 274.28571,689.50507 c 0,58.38438 -47.3299,105.71428 -105.71428,105.71428 -58.38439,0 -105.71429,-47.3299 -105.71429,-105.71428 0,-58.38439 47.3299,-105.71429 105.71429,-105.71429 58.38438,0 105.71428,47.3299 105.71428,105.71429 z"
         sodipodi:ry="105.71429"
         sodipodi:rx="105.71429"
         sodipodi:cy="689.50507"
         sodipodi:cx="168.57143"
         id="path3041"
         style="fill:#ffffff;fill-opacity:1;stroke:#810927;stroke-width:52.85132217;stroke-miterlimit:4;stroke-opacity:1;stroke-dasharray:none;display:inline"
         sodipodi:type="arc" />
    </g>
  </g>
</svg>
